<svg width="393" height="68" viewBox="0 0 393 68" fill="none" xmlns="http://www.w3.org/2000/svg">
<path d="M371.029 0V19.2005H363.993V26.865H371.029V47.5306V50.0254C371.029 50.9726 371.031 51.922 371.117 52.9553C371.202 54.0747 371.287 55.1079 371.459 56.0551C371.716 57.0023 371.973 58.0344 372.316 58.9816C372.573 59.5841 372.746 60.101 373.003 60.5315L373.86 61.9081C374.118 62.3382 374.549 62.7691 374.978 63.1996C375.407 63.6305 375.835 63.9746 376.35 64.233C377.552 65.1801 379.012 65.784 380.385 66.2145C381.758 66.6447 383.13 66.8163 384.589 66.8163H385.104C386.563 66.8163 388.02 66.7314 389.308 66.473C390.595 66.2145 391.884 65.9547 393 65.5246C392.914 63.8886 392.657 61.3928 392.4 58.2068C390.856 58.4653 389.479 58.5528 388.278 58.6383C387.076 58.7245 386.047 58.8093 385.188 58.7231C384.33 58.6369 383.56 58.4647 382.959 58.2068C382.273 57.9483 381.756 57.519 381.327 57.0885C380.897 56.6577 380.642 56.1413 380.385 55.5386C380.127 54.9361 379.868 54.3331 379.782 53.7304C379.696 53.1279 379.526 52.3526 379.44 51.4055C379.354 50.5444 379.355 49.595 379.355 48.4756V26.8652H391.625V19.2007H379.355V0.000100362L371.029 0ZM51.9612 0.774896V4.21802V28.1567V66.6462H64.9185V0.774896H51.9612ZM7.64301e-08 5.07792V33.9247C7.64301e-08 39.3377 -0.000521854 50.2563 0.0846965 66.5579H26.3481C29.0085 66.5579 31.4961 66.0429 33.6415 65.1813C35.8728 64.2342 37.8454 63.0298 39.6476 61.2215C41.4497 59.4133 42.7393 57.4328 43.5974 55.2802C44.5415 53.0414 44.9694 50.6281 44.9694 47.9589C44.9694 46.4951 44.8815 45.1174 44.6239 43.8258C44.3662 42.5342 43.9396 41.2438 43.4246 40.1244C42.91 39.005 42.3068 37.9717 41.5344 37.0245C40.7621 36.0774 39.8203 35.1313 38.7905 34.3564C39.391 33.5814 39.9908 32.8064 40.4199 32.0315C40.8493 31.2565 41.277 30.3954 41.5344 29.4483C41.8779 28.5011 42.1349 27.554 42.3068 26.6068C42.4785 25.6597 42.5676 24.6252 42.5676 23.5919C42.5676 21.0948 42.1363 18.685 41.1923 16.5324C40.3342 14.3797 38.9633 12.3109 37.1612 10.5027C35.359 8.69446 33.2972 7.31901 31.1517 6.4579C29.0063 5.51077 26.6046 5.07792 24.1158 5.07792H7.64301e-08ZM266.066 5.07792V12.8275V66.6462H274.735H275.25H292.153C294.814 66.6462 297.132 66.2161 299.277 65.3546C301.423 64.4936 303.311 63.1997 304.941 61.3914C306.572 59.6693 307.858 57.7749 308.63 55.7084C309.403 53.6418 309.833 51.4043 309.833 48.9072C309.833 47.185 309.661 45.6363 309.318 44.1725C308.975 42.7086 308.46 41.417 307.773 40.2976C307.087 39.1783 306.227 38.1451 305.283 37.1979C304.339 36.2508 303.224 35.4746 301.937 34.6996C302.881 33.9247 303.74 33.0636 304.426 32.1164C305.113 31.1693 305.627 30.136 306.056 29.0166C306.485 27.8972 306.745 26.7767 306.916 25.7435C307.174 24.7102 307.258 23.6792 307.258 22.732C307.258 20.2349 306.829 17.9938 305.971 15.9273C305.113 13.8607 303.826 11.9664 302.109 10.2443C300.393 8.52219 298.505 7.23052 296.445 6.36948C294.386 5.50844 292.155 5.07792 289.752 5.07792H275.25H274.735H266.066ZM275.25 14.1191H289.752C291.211 14.1191 292.498 14.2908 293.613 14.7209C294.729 15.1511 295.759 15.8426 296.703 16.6176C297.647 17.3925 298.249 18.3375 298.678 19.3707C299.107 20.404 299.362 21.5245 299.362 22.6439C299.362 23.7632 299.191 24.7965 298.763 25.7437C298.333 26.6908 297.733 27.6392 296.96 28.5002C296.188 29.3613 295.245 30.0479 294.301 30.4784C293.271 30.9092 292.157 31.0836 290.87 31.0836H275.25V14.1191ZM341.913 17.5928C337.589 17.6993 333.623 20.0301 331.415 23.7619C331.265 23.7093 331.113 23.6547 330.961 23.6054C324.257 21.8031 317.366 25.7944 315.568 32.5208C314.479 36.5952 315.492 40.9463 318.268 44.1146C317.412 45.3178 316.773 46.6627 316.381 48.0879C314.585 54.8157 318.565 61.7305 325.27 63.5326C327.989 64.2543 330.871 64.0398 333.454 62.9243C335.143 65.1975 337.547 66.8332 340.277 67.5672C346.981 69.3695 353.872 65.3782 355.669 58.6518C356.042 57.2153 356.159 55.7241 356.015 54.2467C359.994 52.8994 363.039 49.6476 364.132 45.5796C365.928 38.8517 361.948 31.937 355.243 30.1348C355.087 30.102 354.929 30.0691 354.772 30.0434C354.703 24.3966 350.902 19.4838 345.466 18.0179C344.308 17.7068 343.111 17.5638 341.913 17.5928ZM12.6998 17.8237H24.1158C25.0598 17.8237 26.0016 17.994 26.8597 18.2519C27.632 18.5103 28.4066 18.8557 29.0073 19.4585C29.6078 20.061 30.1207 20.6628 30.464 21.3517C30.7216 22.1267 30.8942 22.9017 30.8942 23.6766C30.8942 24.3655 30.8097 25.0554 30.5521 25.6582C30.2945 26.2607 29.9529 26.9487 29.4376 27.5514C29.0088 28.1539 28.4067 28.5835 27.7201 28.928C27.0336 29.1865 26.2624 29.3594 25.3184 29.3594H12.6998V26.9495V17.8237ZM96.1988 18.7686C94.0534 18.7686 91.9938 19.0271 90.0201 19.5435C88.0463 20.0598 86.1583 20.8352 84.3561 21.8684C82.5539 22.9878 80.9234 24.1921 79.4645 25.5698C78.0056 26.9475 76.8019 28.4986 75.7721 30.1346C75.1717 31.0818 74.6565 32.1139 74.2274 33.0611C73.798 34.0082 73.3704 35.0415 73.1129 36.1609C72.8553 37.2803 72.597 38.3147 72.4252 39.4341C72.2535 40.5535 72.1678 41.7612 72.1678 42.8806C72.1678 45.0333 72.4254 47.1848 72.9401 49.1652C73.4547 51.1456 74.2274 53.04 75.2572 54.8482C76.3729 56.6565 77.5765 58.2925 78.9496 59.7563C80.3227 61.2202 81.8652 62.4245 83.4957 63.4578C84.4397 64.0603 85.3859 64.5771 86.4157 65.0077C87.3597 65.4385 88.3895 65.871 89.5051 66.1293C90.6208 66.3878 91.6483 66.6436 92.7639 66.8159C93.8795 66.9882 95.0832 67.0743 96.1988 67.0743C97.3145 67.0743 98.5148 66.9882 99.6305 66.8159C100.746 66.6436 101.777 66.3871 102.893 66.1293C104.008 65.8708 105.038 65.4382 105.982 65.0077C106.926 64.5769 107.955 64.0605 108.899 63.4578C110.529 62.4245 112.075 61.2202 113.448 59.7563C114.821 58.2925 116.021 56.6565 117.137 54.8482C118.253 53.04 119.024 51.1456 119.539 49.1652C120.054 47.1848 120.311 45.0333 120.311 42.8806C120.311 40.7279 120.054 38.6614 119.539 36.681C119.024 34.7005 118.253 32.8062 117.137 30.998C116.021 29.1897 114.821 27.5537 113.448 26.0898C112.075 24.6261 110.529 23.4184 108.899 22.3851C107.955 21.7826 106.926 21.2656 105.982 20.8351C105.038 20.4043 104.008 19.9752 102.893 19.7169C101.777 19.4585 100.746 19.1992 99.6305 19.0269C98.5148 18.8545 97.3145 18.7686 96.1988 18.7686ZM148.929 18.7686C146.784 18.7686 144.724 19.0271 142.75 19.5435C140.776 20.0598 138.888 20.8352 137.086 21.8684C135.284 22.9878 133.654 24.1921 132.195 25.5698C130.736 26.9475 129.536 28.4986 128.506 30.1346C127.905 31.0818 127.39 32.1139 126.961 33.0611C126.532 34.0082 126.104 35.0415 125.846 36.1609C125.589 37.2803 125.33 38.3147 125.159 39.4341C124.987 40.5535 124.901 41.7612 124.901 42.8806C124.901 45.0333 125.159 47.1848 125.674 49.1652C126.188 51.1456 126.961 53.04 127.991 54.8482C129.106 56.6565 130.307 58.2925 131.68 59.7563C133.053 61.2202 134.599 62.4245 136.229 63.4578C137.173 64.0603 138.116 64.5771 139.146 65.0077C140.09 65.4385 141.12 65.871 142.235 66.1293C143.351 66.3878 144.382 66.6436 145.497 66.8159C146.613 66.9882 147.813 67.0743 148.929 67.0743C150.045 67.0743 151.248 66.9882 152.364 66.8159C153.48 66.6436 154.507 66.3871 155.623 66.1293C156.738 65.8708 157.768 65.4382 158.712 65.0077C159.656 64.5769 160.688 64.0605 161.632 63.4578C163.263 62.4245 164.805 61.2202 166.178 59.7563C167.551 58.2925 168.755 56.6565 169.871 54.8482C170.986 53.04 171.758 51.1456 172.272 49.1652C172.787 47.1848 173.045 45.0333 173.045 42.8806C173.045 40.7279 172.787 38.6614 172.272 36.681C171.757 34.7005 170.986 32.8062 169.871 30.998C168.755 29.1897 167.551 27.5537 166.178 26.0898C164.805 24.6261 163.263 23.4184 161.632 22.3851C160.688 21.7826 159.656 21.2656 158.712 20.8351C157.768 20.4043 156.738 19.9752 155.623 19.7169C154.507 19.4585 153.48 19.1992 152.364 19.0269C151.248 18.8545 150.045 18.7686 148.929 18.7686ZM203.123 18.9423C202.951 18.9423 202.777 18.9412 202.52 19.0271C201.232 19.1132 200.031 19.3731 198.915 19.7171C197.8 20.148 196.685 20.6642 195.741 21.2669C194.711 21.8694 193.769 22.6436 192.825 23.4185C191.966 24.1934 191.192 25.1429 190.419 26.09V19.2005H177.547V46.8406C177.547 54.7624 177.549 61.3936 177.635 66.6461H190.419V45.6339C190.419 43.6534 190.678 41.7614 191.107 40.0393C191.536 38.4032 192.138 36.8535 193.082 35.3896C194.026 34.0119 195.141 32.9786 196.514 32.2897C197.887 31.6009 199.516 31.2565 201.49 31.2565C202.777 31.2565 204.067 31.4281 205.182 31.8583C206.298 32.2029 207.242 32.7182 208.014 33.4932C208.786 34.2682 209.472 35.3013 209.901 36.5929C210.33 37.8846 210.501 39.5228 210.501 41.331V66.558H223.031V47.5307V45.6341C223.031 43.6536 223.29 41.7616 223.719 40.0395C224.147 38.4034 224.834 36.8536 225.778 35.3898C226.722 34.0121 227.837 32.9788 229.21 32.2899C230.583 31.6011 232.214 31.2567 234.101 31.2567C235.389 31.2567 236.59 31.4283 237.706 31.8585C238.821 32.2031 239.85 32.7184 240.622 33.4934C241.481 34.2684 242.168 35.3016 242.597 36.5931C243.027 37.8848 243.197 39.5196 243.197 41.3278V66.5582H255.727V39.003V38.8333C255.727 35.8196 255.297 33.0631 254.525 30.6521C253.667 28.2411 252.466 26.1758 250.836 24.3675C249.205 22.5594 247.316 21.2665 244.999 20.3193C242.768 19.3721 240.28 18.9428 237.448 18.9428C235.389 18.9428 233.502 19.1157 231.7 19.4597C229.898 19.7182 228.267 20.2359 226.808 20.9247C225.349 21.5272 223.974 22.3023 222.858 23.2495C221.657 24.1966 220.628 25.23 219.684 26.3494C218.912 25.23 218.055 24.1966 217.025 23.2495C215.995 22.3023 214.877 21.5275 213.59 20.9247C212.303 20.3222 210.93 19.8042 209.471 19.4597C208.012 19.1151 206.383 18.9428 204.752 18.9428H203.637L203.123 18.9423ZM96.1988 31.0833C97.8294 31.0833 99.286 31.3404 100.745 31.9432C102.118 32.5456 103.406 33.407 104.522 34.5264C105.638 35.6458 106.496 36.9385 107.097 38.3162C107.697 39.78 107.954 41.2449 107.954 42.8809C107.954 44.5169 107.697 45.9785 107.097 47.4423C106.496 48.82 105.638 50.1128 104.522 51.2322C103.406 52.3516 102.118 53.2125 100.745 53.8153C99.286 54.4178 97.8294 54.6752 96.1988 54.6752C94.5683 54.6752 93.0225 54.418 91.6494 53.8153C90.2764 53.2128 88.9879 52.3516 87.8723 51.2322C86.7567 50.1128 85.8986 48.82 85.2978 47.4423C84.6974 45.9785 84.4408 44.5169 84.4408 42.8809C84.4408 41.2449 84.6971 39.78 85.2978 38.3162C85.8983 36.9385 86.7567 35.6458 87.8723 34.5264C88.9879 33.407 90.2764 32.5459 91.6494 31.9432C93.0225 31.3407 94.5683 31.0833 96.1988 31.0833ZM148.929 31.0833C150.56 31.0833 152.02 31.3404 153.478 31.9432C154.852 32.5456 156.14 33.407 157.256 34.5264C158.371 35.6458 159.229 36.9385 159.83 38.3162C160.431 39.78 160.687 41.2449 160.687 42.8809C160.687 44.5169 160.431 45.9785 159.83 47.4423C159.23 48.82 158.371 50.1128 157.256 51.2322C156.14 52.3516 154.852 53.2125 153.478 53.8153C152.02 54.4178 150.56 54.6752 148.929 54.6752C147.298 54.6752 145.756 54.418 144.383 53.8153C143.01 53.2128 141.722 52.3516 140.606 51.2322C139.49 50.1128 138.632 48.82 138.031 47.4423C137.431 45.9785 137.174 44.5169 137.174 42.8809C137.174 41.2449 137.431 39.78 138.031 38.3162C138.632 36.9385 139.49 35.6458 140.606 34.5264C141.722 33.407 143.01 32.5459 144.383 31.9432C145.756 31.3407 147.298 31.0833 148.929 31.0833ZM338.569 31.6614C345.039 31.6614 350.283 36.9237 350.283 43.415C350.283 49.9062 345.039 55.1683 338.569 55.1684C332.1 55.1683 326.855 49.9062 326.855 43.415C326.855 36.9237 332.1 31.6614 338.569 31.6614ZM275.25 40.298H292.153C293.441 40.298 294.73 40.5539 295.846 40.9847C296.962 41.4148 297.903 42.0202 298.847 42.8813C299.705 43.6563 300.393 44.6011 300.822 45.6344C301.251 46.6677 301.424 47.7882 301.51 48.9076C301.51 50.0269 301.251 51.1474 300.822 52.1807C300.393 53.214 299.705 54.1611 298.847 55.0222C297.989 55.7972 296.962 56.4848 295.846 56.9154C294.73 57.3455 293.526 57.5172 292.153 57.5172H275.25V40.298ZM12.7879 42.1912H26.4328C27.3768 42.1912 28.2349 42.3617 29.0073 42.6195C29.7797 42.878 30.551 43.2233 31.1517 43.8261C31.7522 44.4286 32.2696 45.0304 32.527 45.7193C32.7846 46.4081 32.9538 47.1865 32.9538 48.0476C32.9538 48.8225 32.7846 49.5952 32.527 50.284C32.1835 50.9729 31.6677 51.5779 31.067 52.1807C30.4665 52.7832 29.7797 53.214 29.0073 53.4722C28.2349 53.7307 27.2921 53.9004 26.3481 53.9004H12.7879V46.4975V42.1912Z" fill="#DBE8BE"/>
</svg>
