<svg width="51" height="51" viewBox="0 0 51 51" fill="none" xmlns="http://www.w3.org/2000/svg">
<mask id="mask0_42_37" style="mask-type:alpha" maskUnits="userSpaceOnUse" x="0" y="0" width="51" height="51">
<rect width="51" height="51" fill="#D9D9D9"/>
</mask>
<g mask="url(#mask0_42_37)">
<path d="M12.1125 29.6438C10.9615 29.6438 9.98307 29.2409 9.17734 28.4352C8.37161 27.6294 7.96875 26.6511 7.96875 25.5C7.96875 24.349 8.37161 23.3706 9.17734 22.5649C9.98307 21.7591 10.9615 21.3563 12.1125 21.3563C13.2635 21.3563 14.2419 21.7591 15.0477 22.5649C15.8534 23.3706 16.2563 24.349 16.2563 25.5C16.2563 26.6511 15.8534 27.6294 15.0477 28.4352C14.2419 29.2409 13.2635 29.6438 12.1125 29.6438ZM25.5 29.6438C24.349 29.6438 23.3706 29.2409 22.5648 28.4352C21.7591 27.6294 21.3563 26.6511 21.3563 25.5C21.3563 24.349 21.7591 23.3706 22.5648 22.5649C23.3706 21.7591 24.349 21.3563 25.5 21.3563C26.651 21.3563 27.6294 21.7591 28.4352 22.5649C29.2409 23.3706 29.6438 24.349 29.6438 25.5C29.6438 26.6511 29.2409 27.6294 28.4352 28.4352C27.6294 29.2409 26.651 29.6438 25.5 29.6438ZM38.8875 29.6438C37.7365 29.6438 36.7581 29.2409 35.9523 28.4352C35.1466 27.6294 34.7438 26.6511 34.7438 25.5C34.7438 24.349 35.1466 23.3706 35.9523 22.5649C36.7581 21.7591 37.7365 21.3563 38.8875 21.3563C40.0385 21.3563 41.0169 21.7591 41.8227 22.5649C42.6284 23.3706 43.0313 24.349 43.0313 25.5C43.0313 26.6511 42.6284 27.6294 41.8227 28.4352C41.0169 29.2409 40.0385 29.6438 38.8875 29.6438Z" fill="#DBE8BE"/>
</g>
</svg>
