<svg width="51" height="51" viewBox="0 0 51 51" fill="none" xmlns="http://www.w3.org/2000/svg">
<mask id="mask0_31_60" style="mask-type:alpha" maskUnits="userSpaceOnUse" x="0" y="0" width="51" height="51">
<rect width="51" height="51" fill="#D9D9D9"/>
</mask>
<g mask="url(#mask0_31_60)">
<path d="M30.8141 38.1172C31.663 38.1172 32.3841 37.82 32.9773 37.2257C33.5706 36.6315 33.8672 35.9098 33.8672 35.0609C33.8672 34.212 33.57 33.4909 32.9757 32.8977C32.3815 32.3044 31.6598 32.0078 30.8109 32.0078C29.962 32.0078 29.2409 32.305 28.6477 32.8992C28.0544 33.4935 27.7578 34.2152 27.7578 35.0641C27.7578 35.913 28.055 36.6341 28.6493 37.2273C29.2435 37.8206 29.9652 38.1172 30.8141 38.1172ZM18.6734 36.55C19.0807 36.9573 19.5516 37.1609 20.086 37.1609C20.6205 37.1609 21.0881 36.9573 21.4891 36.55L32.3 25.7391C32.7073 25.3381 32.9109 24.8705 32.9109 24.336C32.9109 23.8016 32.7073 23.3307 32.3 22.9234C31.8927 22.5161 31.4234 22.3125 30.8922 22.3125C30.3609 22.3125 29.8917 22.5161 29.4844 22.9234L18.6734 33.7344C18.2661 34.1417 18.0625 34.6109 18.0625 35.1422C18.0625 35.6734 18.2661 36.1427 18.6734 36.55ZM20.1891 27.4922C21.038 27.4922 21.7591 27.195 22.3523 26.6007C22.9456 26.0065 23.2422 25.2848 23.2422 24.4359C23.2422 23.587 22.945 22.8659 22.3507 22.2726C21.7565 21.6794 21.0348 21.3828 20.1859 21.3828C19.337 21.3828 18.6159 21.68 18.0227 22.2742C17.4294 22.8685 17.1328 23.5902 17.1328 24.4391C17.1328 25.288 17.43 26.0091 18.0242 26.6023C18.6185 27.1956 19.3402 27.4922 20.1891 27.4922ZM25.5 46.4844C20.7365 46.4844 16.7565 44.8455 13.5602 41.5676C10.3638 38.2895 8.76562 34.2095 8.76562 29.3277C8.76562 27.1655 9.26146 24.9953 10.2531 22.8172C11.2448 20.6391 12.4755 18.5406 13.9453 16.5219C15.4151 14.5031 17.0133 12.6128 18.7398 10.8508C20.4664 9.0888 22.0557 7.56145 23.5078 6.26874C23.7911 6.00312 24.101 5.81275 24.4375 5.69765C24.774 5.58255 25.1281 5.52499 25.5 5.52499C25.8719 5.52499 26.226 5.58255 26.5625 5.69765C26.899 5.81275 27.2089 6.00312 27.4922 6.26874C28.9637 7.5696 30.558 9.09889 32.275 10.8566C33.9917 12.6147 35.5849 14.5031 37.0547 16.5219C38.5245 18.5406 39.7552 20.6391 40.7469 22.8172C41.7385 24.9953 42.2344 27.1655 42.2344 29.3277C42.2344 34.2095 40.6362 38.2895 37.4398 41.5676C34.2435 44.8455 30.2635 46.4844 25.5 46.4844ZM25.5 42.5C29.1833 42.5 32.2292 41.2516 34.6375 38.7547C37.0458 36.2578 38.25 33.1146 38.25 29.325C38.25 26.7396 37.1786 23.8177 35.0359 20.5594C32.8932 17.301 29.7146 13.7417 25.5 9.88124C21.2854 13.7417 18.1068 17.301 15.9641 20.5594C13.8214 23.8177 12.75 26.7396 12.75 29.325C12.75 33.1146 13.9542 36.2578 16.3625 38.7547C18.7708 41.2516 21.8167 42.5 25.5 42.5Z" fill="#DBE8BE"/>
</g>
</svg>
