<svg width="51" height="51" viewBox="0 0 51 51" fill="none" xmlns="http://www.w3.org/2000/svg">
<mask id="mask0_42_46" style="mask-type:alpha" maskUnits="userSpaceOnUse" x="0" y="0" width="51" height="51">
<rect width="51" height="51" fill="#D9D9D9"/>
</mask>
<g mask="url(#mask0_42_46)">
<path d="M25.5 28.3156L15.1672 38.6484C14.7776 39.038 14.3084 39.2284 13.7594 39.2195C13.2105 39.2107 12.7412 39.0115 12.3516 38.6219C11.9797 38.2323 11.7982 37.7675 11.8071 37.2274C11.8159 36.6872 12.0063 36.2313 12.3782 35.8594L22.6844 25.5L12.3782 15.1406C12.0063 14.7688 11.8204 14.3128 11.8204 13.7727C11.8204 13.2326 12.0063 12.7677 12.3782 12.3781C12.75 11.9885 13.2105 11.7893 13.7594 11.7805C14.3084 11.7716 14.7776 11.962 15.1672 12.3516L25.5 22.6844L35.8329 12.3516C36.2224 11.962 36.6917 11.7716 37.2407 11.7805C37.7896 11.7893 38.2589 11.9885 38.6485 12.3781C39.0204 12.7677 39.2019 13.2326 39.193 13.7727C39.1842 14.3128 38.9938 14.7688 38.6219 15.1406L28.3157 25.5L38.6219 35.8594C38.9938 36.2313 39.1797 36.6872 39.1797 37.2274C39.1797 37.7675 38.9938 38.2323 38.6219 38.6219C38.25 39.0115 37.7896 39.2107 37.2407 39.2195C36.6917 39.2284 36.2224 39.038 35.8329 38.6484L25.5 28.3156Z" fill="#DBE8BE"/>
</g>
</svg>
