<svg width="51" height="51" viewBox="0 0 51 51" fill="none" xmlns="http://www.w3.org/2000/svg">
<mask id="mask0_42_19" style="mask-type:alpha" maskUnits="userSpaceOnUse" x="0" y="0" width="51" height="51">
<rect width="51" height="51" fill="#D9D9D9"/>
</mask>
<g mask="url(#mask0_42_19)">
<path d="M20.347 32.2469L38.1439 14.45C38.5512 14.0427 39.0204 13.8391 39.5517 13.8391C40.0829 13.8391 40.5522 14.0427 40.9595 14.45C41.3668 14.8573 41.5704 15.331 41.5704 15.8711C41.5704 16.4112 41.3668 16.8849 40.9595 17.2922L21.7548 36.5235C21.3475 36.9307 20.8783 37.1344 20.347 37.1344C19.8158 37.1344 19.3465 36.9307 18.9392 36.5235L10.0142 27.5985C9.60691 27.1912 9.40769 26.7175 9.41654 26.1774C9.4254 25.6373 9.63347 25.1636 10.0408 24.7563C10.4481 24.349 10.9218 24.1453 11.4619 24.1453C12.002 24.1453 12.4757 24.349 12.8829 24.7563L20.347 32.2469Z" fill="#DBE8BE"/>
</g>
</svg>
