<svg width="198" height="293" viewBox="0 0 198 293" fill="none" xmlns="http://www.w3.org/2000/svg">
<path d="M140.645 0.0034332C139.21 -0.0214769 137.693 0.0879462 136.099 0.371673C127.672 1.88422 123.181 8.74186 123.441 8.49301C122.362 9.52486 121.737 10.9427 121.704 12.4345C121.671 13.9263 122.233 15.3699 123.266 16.448C124.3 17.5259 125.719 18.1498 127.213 18.1825C128.707 18.2152 130.153 17.6542 131.233 16.6226C134.856 13.1573 133.671 12.2412 138.091 11.448C141.867 10.7705 143.65 11.488 146.896 12.8444C147.713 13.1849 148.878 13.588 149.868 13.9841C149.433 14.7194 148.932 15.2901 148.563 16.15C147.975 17.5218 147.957 19.0707 148.512 20.4561C149.067 21.8414 150.151 22.9498 151.525 23.5373C152.898 24.1247 154.449 24.1431 155.837 23.5887C157.224 23.0342 158.334 21.9524 158.922 20.5807C159.771 18.6031 160.624 17.8216 161.461 17.1842C161.88 16.8656 162.295 16.6116 162.852 16.2698C163.409 15.9283 164.255 16.0231 165.723 13.6347C166.25 12.7781 166.537 11.7965 166.554 10.7918C166.572 9.78715 166.32 8.79593 165.825 7.92134C165.329 7.04675 164.608 6.32062 163.737 5.81833C162.865 5.31604 161.875 5.05602 160.869 5.06513C157.143 5.1 154.875 3.97562 151.242 2.46009C148.518 1.32344 144.948 0.0722435 140.643 0.00100057L140.645 0.0034332ZM66.5716 7.11948C64.4036 7.14439 62.2654 7.37911 60.2086 7.7991C53.1774 9.23641 47.8645 13.0503 43.0112 16.2826C38.1579 19.5152 33.7921 22.2291 28.7692 23.1907C27.3547 23.4683 26.1005 24.2768 25.2647 25.4497C24.4289 26.6225 24.0749 28.0708 24.2757 29.4963C24.4764 30.9219 25.2165 32.2162 26.3438 33.1133C27.4712 34.0105 28.9002 34.4423 30.3365 34.3196C35.8673 33.8202 37.1016 34.6021 39.0386 35.7485C40.9753 36.8946 44.4983 39.6036 49.847 39.6863C51.3411 39.7091 52.7831 39.1382 53.8558 38.0993C54.9285 37.0604 55.5441 35.6384 55.5671 34.1463C55.5899 32.6542 55.0182 31.2143 53.9779 30.1431C52.9375 29.0719 51.5135 28.4571 50.0193 28.4342C48.5606 28.4093 47.7855 27.969 46.6515 27.2349C47.4887 26.6931 48.4747 26.1695 49.2642 25.6437C54.2107 22.349 58.3302 19.6711 62.4711 18.8244C66.0215 18.0985 70.1943 18.2804 73.5861 19.5095C74.2818 19.7618 75.0202 19.8747 75.7597 19.8418C76.4991 19.809 77.2249 19.6312 77.8954 19.3182C78.566 19.0053 79.1682 18.5634 79.6677 18.018C80.1672 17.4725 80.5541 16.8342 80.8065 16.1394C81.316 14.7368 81.2467 13.1895 80.6141 11.8379C79.9814 10.4862 78.837 9.44105 77.4326 8.93179C74.5911 7.90226 71.6566 7.33672 68.7472 7.17057C68.0198 7.13071 67.2942 7.1145 66.5716 7.11948ZM139.74 14.3088C138.249 14.4116 136.861 15.1011 135.879 16.2257C129.599 23.4312 122.104 35.3006 117.438 51.4332C115.088 46.6587 112.135 42.3736 108.536 38.6655C97.9699 27.7793 82.3894 22.2699 63.2436 22.2699C62.5035 22.27 61.7705 22.4159 61.0868 22.699C60.4031 22.982 59.7821 23.3967 59.2589 23.9195C58.7357 24.4423 58.3208 25.0629 58.0378 25.7458C57.7549 26.4288 57.6093 27.1605 57.6097 27.8996C57.61 29.3916 58.2036 30.8226 59.2601 31.8776C60.3166 32.9326 61.7495 33.5254 63.2436 33.5257C80.2746 33.5257 92.3744 38.185 100.443 46.4983C107.598 53.8704 111.902 64.528 112.787 78.7477C111.324 78.7908 109.935 79.4008 108.914 80.4484C107.894 81.4959 107.321 82.8991 107.318 84.3606C107.318 85.8527 107.912 87.2835 108.969 88.3386C110.025 89.3937 111.458 89.9865 112.952 89.9867H118.602C118.61 89.9864 118.618 89.9861 118.627 89.9858C118.627 89.9855 118.627 89.9861 118.627 89.9858C118.883 89.9825 119.139 89.9625 119.393 89.9244C119.467 89.9126 119.541 89.8993 119.615 89.8845C119.749 89.8611 119.883 89.8331 120.015 89.8C120.051 89.7896 120.088 89.7786 120.125 89.7675C120.155 89.7586 120.184 89.7495 120.214 89.7401C120.276 89.7237 120.338 89.7063 120.399 89.6878C120.647 89.6052 120.888 89.5055 121.122 89.3895C121.17 89.3644 121.217 89.3387 121.264 89.3123C121.295 89.2951 121.326 89.2777 121.356 89.26C121.393 89.2396 121.43 89.2191 121.466 89.1979C121.586 89.1275 121.702 89.0525 121.816 88.9735C121.875 88.9331 121.934 88.8918 121.991 88.8492C122.19 88.7006 122.379 88.5391 122.557 88.3657C122.567 88.3574 122.578 88.3491 122.587 88.3407C122.587 88.341 122.588 88.3405 122.587 88.3407C122.771 88.1546 122.941 87.9553 123.097 87.7456C123.141 87.6859 123.185 87.6253 123.227 87.5638C123.306 87.4511 123.38 87.3354 123.451 87.2172C123.469 87.1849 123.486 87.1527 123.503 87.1202C123.519 87.0904 123.535 87.0605 123.551 87.0305C123.582 86.9753 123.612 86.9196 123.641 86.8635C123.756 86.6323 123.855 86.3935 123.938 86.1486C123.955 86.0891 123.972 86.0293 123.988 85.9692C123.996 85.9427 124.004 85.9162 124.013 85.8895C124.026 85.8465 124.038 85.8033 124.05 85.76C124.084 85.6283 124.113 85.4955 124.137 85.3617C124.15 85.2897 124.162 85.2173 124.172 85.1449C124.209 84.8979 124.229 84.6488 124.232 84.3993C124.232 84.3876 124.232 84.3762 124.232 84.3646C124.232 75.5985 125.913 69.4925 127.875 66.2044C129.838 62.9165 131.277 62.4062 133.15 62.5619C135.022 62.7163 138.292 64.3371 141.765 68.8465C145.238 73.3558 148.754 80.5061 151.319 90.2728C151.697 91.7164 152.635 92.9507 153.925 93.7041C155.215 94.4574 156.752 94.6682 158.197 94.29C158.913 94.1028 159.585 93.7762 160.175 93.3294C160.765 92.8827 161.261 92.3244 161.634 91.6862C162.008 91.048 162.252 90.3426 162.352 89.6103C162.453 88.8779 162.408 88.1328 162.22 87.4178C159.363 76.5396 155.398 68.0884 150.697 61.9844C145.996 55.8802 140.4 51.8719 134.085 51.3468C132.401 51.2073 130.736 51.3818 129.131 51.8075C133.363 38.6873 139.54 29.1698 144.377 23.6203C144.863 23.0629 145.234 22.4153 145.469 21.7147C145.704 21.014 145.799 20.274 145.748 19.5368C145.696 18.7997 145.5 18.0798 145.17 17.4183C144.841 16.7569 144.383 16.1665 143.825 15.6814C143.267 15.1962 142.618 14.8259 141.917 14.591C141.215 14.3561 140.474 14.2615 139.736 14.3128L139.74 14.3088ZM144.287 37.3677C143.188 37.5519 142.168 38.0575 141.357 38.8203C140.546 39.5831 139.979 40.5688 139.729 41.6531C139.563 42.3734 139.54 43.1193 139.663 43.8482C139.786 44.5771 140.051 45.2746 140.444 45.9011C140.837 46.5275 141.349 47.0707 141.952 47.4993C142.555 47.9279 143.237 48.2339 143.958 48.3994C154.08 50.7238 174.119 57.5006 182.715 70.3669C185.336 74.3244 186.615 78.3342 186.739 82.8123V174.998C186.739 181.726 184.042 188.462 178.39 194.78L174.839 198.252C174.829 198.263 174.819 198.274 174.809 198.285C174.801 198.293 174.792 198.301 174.784 198.31C165.41 207.666 147.633 214.809 127.232 216.356C124.368 216.573 121.478 216.682 118.587 216.682C115.695 216.682 112.808 216.573 109.944 216.356C89.5669 214.81 71.8089 207.682 62.4263 198.341C62.4025 198.316 62.3782 198.291 62.3539 198.267L58.8049 194.799C56.8899 192.659 55.3197 190.471 54.0735 188.252C54.0105 188.13 53.943 188.01 53.8713 187.893C51.5706 183.672 50.4499 179.34 50.4499 175.012V107.663C54.154 111.424 58.6034 114.796 63.6039 117.685C78.0298 126.019 97.3365 130.922 118.59 130.922C130.674 130.922 142.132 129.318 152.419 126.42C153.857 126.015 155.075 125.056 155.805 123.754C156.535 122.453 156.717 120.915 156.312 119.479C155.906 118.043 154.946 116.827 153.643 116.098C152.339 115.369 150.799 115.187 149.361 115.591C140.138 118.19 129.673 119.668 118.59 119.668C99.0984 119.668 81.5236 115.033 69.2481 107.941C56.973 100.849 50.4499 91.8173 50.4499 82.676C50.4499 76.6558 53.1675 70.8524 58.6459 65.3709C64.1243 59.8895 72.3428 54.9655 82.4189 51.4572C83.8294 50.9655 84.9864 49.9345 85.6359 48.591C86.2854 47.2474 86.374 45.7013 85.8823 44.2925C85.3899 42.8842 84.3575 41.7288 83.0123 41.0802C81.6671 40.4316 80.1194 40.3431 78.7088 40.8339C67.3641 44.7839 57.7089 50.375 50.6691 57.4184C43.6297 64.4617 39.1833 73.194 39.1833 82.676V160.202H24.5543H20.4279C15.2559 160.202 11.2669 156.219 11.2669 151.054V69.4477C11.2669 64.2829 15.2559 60.2992 20.4279 60.2992H24.5543H39.3495C40.8439 60.2987 42.2769 59.7057 43.3333 58.6502C44.3897 57.5947 44.9829 56.1633 44.9825 54.671C44.9823 53.1791 44.3888 51.7481 43.3324 50.6931C42.2761 49.638 40.8435 49.0451 39.3495 49.0446H24.5543H20.4279C9.20746 49.0446 0 58.2426 0 69.4477V151.054C0 162.259 9.20746 171.457 20.4279 171.457H24.5543H39.1833V175.036C39.1833 180.981 40.6872 186.814 43.4688 192.272V236.775C43.4688 244.829 46.7348 252.232 52.4021 258.638C52.6994 259.274 53.0181 259.9 53.3536 260.518L54.1301 263.399C54.4436 264.568 55.1263 265.605 56.0768 266.356L60.5046 269.847C67.3757 276.544 76.9604 281.58 88.0796 284.784L102.634 291.346C103.048 291.532 103.482 291.668 103.929 291.751C103.929 291.751 110.624 293 118.59 293C126.528 293 133.285 291.817 133.285 291.817C133.762 291.735 134.226 291.592 134.666 291.392L149.217 284.749C160.282 281.546 169.821 276.524 176.668 269.854L181.103 266.356C182.055 265.606 182.738 264.568 183.053 263.399L183.827 260.516C184.161 259.901 184.479 259.278 184.775 258.644C190.424 252.261 193.687 244.888 193.712 236.867C193.712 236.859 193.712 236.85 193.712 236.842V192.266C196.498 186.801 197.998 180.958 197.998 175.005V82.6666C197.999 82.6226 197.999 82.5787 197.998 82.5347C197.999 82.5239 197.999 82.5129 198 82.5021C197.818 75.9635 195.787 69.7 192.099 64.1403C192.091 64.132 192.082 64.1237 192.074 64.1154C180.291 46.4698 157.712 40.0028 146.462 37.4191L146.487 37.444C145.766 37.2786 145.019 37.2566 144.29 37.3793L144.287 37.3677ZM165.335 66.465C164.148 66.5404 163.015 66.9891 162.099 67.7467C161.182 68.5043 160.53 69.532 160.234 70.6826C160.05 71.3985 160.009 72.1436 160.114 72.8753C160.218 73.607 160.466 74.311 160.843 74.947C161.22 75.583 161.719 76.1385 162.311 76.582C162.903 77.0255 163.577 77.3482 164.294 77.5316C166.861 78.1885 170.124 80.8965 170.839 82.3869C171.467 83.6937 171.54 84.8338 171.109 86.723C170.678 88.6127 169.604 91.0456 168.217 93.7381C166.73 96.6255 164.852 99.8175 163.402 103.372C159.831 101.304 156.085 99.844 152.781 98.4428C146.806 95.9097 142.805 93.603 141.516 90.6073C141.251 89.9918 141.01 88.3915 141.234 86.942C141.458 85.4927 142.131 84.2986 142.428 84.0079C142.957 83.491 143.379 82.8751 143.67 82.1953C143.96 81.5155 144.114 80.7854 144.122 80.0464C144.13 79.3073 143.991 78.5738 143.715 77.888C143.439 77.2022 143.031 76.5776 142.513 76.0496C141.468 74.9837 140.041 74.376 138.547 74.3601C137.054 74.3442 135.614 74.9214 134.547 75.9647C131.826 78.6239 130.604 81.9454 130.098 85.2264C129.592 88.5078 129.786 91.8518 131.162 95.049C134.561 102.943 142.113 106.146 148.38 108.803C154.647 111.461 160.075 113.863 162.426 116.901C163.149 117.835 164.147 118.518 165.28 118.854C166.413 119.19 167.623 119.162 168.739 118.773C169.855 118.385 170.82 117.656 171.499 116.69C172.177 115.723 172.534 114.568 172.519 113.388C172.477 109.983 175.209 104.774 178.242 98.884C179.759 95.9389 181.283 92.8004 182.099 89.2241C182.915 85.6477 182.881 81.428 181.004 77.5201C178.292 71.8717 173.064 68.1554 167.091 66.6277C166.519 66.4813 165.927 66.426 165.337 66.4635L165.335 66.465ZM84.2243 74.1591C83.4842 74.1588 82.7513 74.3041 82.0675 74.5866C81.3836 74.8692 80.7624 75.2833 80.2389 75.8057C79.7154 76.3281 79.3001 76.9481 79.0166 77.6308C78.7332 78.3134 78.5872 79.0452 78.587 79.7843C78.5866 80.5236 78.7322 81.2558 79.0154 81.939C79.2986 82.6221 79.7135 83.243 80.2371 83.7659C80.7606 84.2887 81.3824 84.7033 82.0665 84.9861C82.7507 85.2689 83.4838 85.4143 84.2243 85.414H86.6137C87.3541 85.4142 88.0873 85.2687 88.7714 84.9858C89.4555 84.703 90.0768 84.2884 90.6003 83.7656C91.1237 83.2427 91.5391 82.6221 91.8222 81.939C92.1054 81.2558 92.251 80.5236 92.2507 79.7843C92.2504 79.0453 92.1044 78.3137 91.821 77.6311C91.5376 76.9485 91.1222 76.3284 90.5987 75.806C90.0753 75.2836 89.454 74.8692 88.7702 74.5866C88.0864 74.3041 87.3537 74.1588 86.6137 74.1591H84.2243ZM21.5345 83.7187C20.7942 83.7185 20.0611 83.864 19.3771 84.1469C18.6931 84.4297 18.0717 84.8443 17.5483 85.3671C17.0248 85.8899 16.6097 86.5107 16.3266 87.1937C16.0435 87.8768 15.8978 88.6089 15.8981 89.3481C15.8982 90.0872 16.0442 90.8189 16.3275 91.5016C16.6108 92.1843 17.0261 92.8049 17.5495 93.3273C18.0729 93.8498 18.6942 94.264 19.378 94.5467C20.0618 94.8293 20.7945 94.9747 21.5345 94.9745H28.9955C29.7356 94.9749 30.4684 94.8295 31.1523 94.547C31.8362 94.2644 32.4579 93.8501 32.9814 93.3276C33.5049 92.8052 33.92 92.1847 34.2034 91.5019C34.4868 90.8191 34.633 90.0872 34.6331 89.3481C34.6334 88.6088 34.4875 87.8766 34.2043 87.1934C33.9211 86.5103 33.5059 85.8896 32.9823 85.3668C32.4588 84.844 31.8373 84.4293 31.1532 84.1466C30.4691 83.8638 29.7359 83.7184 28.9955 83.7187H21.5345ZM97.4062 90.9126C96.1658 90.8866 94.9515 91.2701 93.9516 92.0037L92.8597 92.801C92.2629 93.2379 91.7582 93.7881 91.3743 94.4199C90.9905 95.0517 90.735 95.7527 90.6225 96.483C90.51 97.2134 90.5428 97.9589 90.7187 98.6767C90.8947 99.3944 91.2104 100.071 91.6481 100.667C92.0857 101.262 92.6365 101.766 93.2692 102.15C93.9019 102.533 94.6042 102.788 95.3356 102.9C96.067 103.013 96.8135 102.98 97.5323 102.804C98.2511 102.628 98.9279 102.313 99.5247 101.876L100.616 101.075C101.213 100.638 101.718 100.088 102.102 99.4563C102.486 98.8245 102.741 98.1235 102.854 97.3932C102.966 96.6628 102.933 95.9173 102.757 95.1995C102.581 94.4818 102.266 93.8058 101.828 93.2099C100.944 92.0067 99.6174 91.2035 98.1404 90.9768C97.8973 90.9392 97.6522 90.9182 97.4062 90.9126ZM21.5345 106.229C20.7945 106.229 20.0618 106.374 19.378 106.657C18.6942 106.94 18.0729 107.354 17.5495 107.877C17.0261 108.399 16.6108 109.019 16.3275 109.702C16.0442 110.385 15.8982 111.116 15.8981 111.855C15.8987 113.348 16.4928 114.779 17.5498 115.833C18.6068 116.888 20.0402 117.481 21.5345 117.48H28.9955C29.7355 117.481 30.4681 117.336 31.152 117.053C31.8358 116.771 32.4573 116.356 32.9808 115.834C33.5043 115.312 33.9196 114.691 34.2031 114.009C34.4866 113.326 34.6328 112.594 34.6331 111.855C34.633 111.116 34.4868 110.384 34.2034 109.702C33.92 109.019 33.5049 108.398 32.9814 107.876C32.4579 107.353 31.8362 106.939 31.1523 106.657C30.4684 106.374 29.7356 106.229 28.9955 106.229H21.5345ZM96.4129 168.937C92.1753 169.026 88.2176 169.956 84.8695 172.034C83.6005 172.822 82.6968 174.081 82.3573 175.535C82.0179 176.988 82.2706 178.517 83.0595 179.784C83.8486 181.051 85.1094 181.954 86.5647 182.293C88.02 182.632 89.5507 182.379 90.8198 181.591C92.0638 180.819 93.8976 180.245 96.6562 180.186C98.1499 180.153 99.5695 179.529 100.603 178.452C101.636 177.375 102.199 175.931 102.167 174.44C102.134 172.948 101.51 171.531 100.431 170.499C99.3519 169.467 97.9066 168.905 96.4129 168.937ZM138.745 169.373C138.005 169.357 137.269 169.486 136.579 169.754C135.89 170.022 135.26 170.422 134.725 170.933C134.19 171.444 133.762 172.055 133.464 172.732C133.166 173.408 133.004 174.136 132.988 174.875C132.971 175.614 133.101 176.349 133.369 177.038C133.638 177.727 134.039 178.357 134.551 178.891C135.064 179.424 135.676 179.853 136.354 180.15C137.032 180.447 137.761 180.609 138.501 180.624C141.26 180.684 143.094 181.254 144.338 182.027C145.607 182.815 147.138 183.067 148.593 182.728C150.048 182.389 151.309 181.486 152.098 180.219C152.887 178.952 153.14 177.423 152.8 175.97C152.461 174.517 151.557 173.258 150.288 172.47C146.94 170.391 142.982 169.464 138.745 169.373ZM107.526 185.637C106.253 185.534 104.983 185.866 103.924 186.579C103.31 186.992 102.783 187.521 102.374 188.137C101.965 188.753 101.681 189.443 101.54 190.169C101.398 190.894 101.4 191.64 101.547 192.365C101.695 193.089 101.983 193.778 102.397 194.391C102.397 194.391 107.683 203.51 117.897 202.918C127.086 202.385 131.863 194.87 131.863 194.87C132.27 194.253 132.552 193.562 132.692 192.836C132.832 192.11 132.827 191.364 132.678 190.64C132.529 189.916 132.239 189.229 131.824 188.617C131.409 188.005 130.877 187.481 130.259 187.074C129.641 186.668 128.949 186.387 128.222 186.248C127.495 186.109 126.748 186.114 126.023 186.264C125.298 186.412 124.609 186.702 123.997 187.117C123.384 187.531 122.859 188.062 122.452 188.679C122.452 188.679 120.408 191.499 117.244 191.683C115.105 191.807 111.747 188.104 111.747 188.104C111.274 187.403 110.649 186.817 109.919 186.389C109.188 185.962 108.37 185.705 107.526 185.637ZM182.453 206.553V236.763C182.453 247.601 171.745 259.39 151.562 266.105C131.379 272.82 105.821 272.82 85.6384 266.105C65.4559 259.39 54.7483 247.601 54.7483 236.763V206.557C56.4016 208.179 58.1936 209.714 60.1109 211.162C59.4376 212.598 59.1336 214.14 59.0844 215.542C58.9846 218.403 59.7472 221.192 61.2132 223.827C62.6792 226.462 64.6396 228.586 67.1763 229.98C69.713 231.375 73.457 232.05 76.6771 230.12C79.8496 228.219 81.0121 224.844 81.1421 222.008C89.6715 224.93 99.1443 226.81 109.099 227.565C112.249 227.804 115.42 227.923 118.596 227.923C121.771 227.923 124.946 227.804 128.097 227.565C150.345 225.877 170.196 218.578 182.45 206.553L182.453 206.553Z" fill="#DBE8BE"/>
</svg>
