<svg width="198" height="293" viewBox="0 0 198 293" fill="none" xmlns="http://www.w3.org/2000/svg">
<path d="M140.648 0.00343306C139.213 -0.0214761 137.697 0.0879427 136.103 0.371658C127.676 1.88414 123.184 8.74151 123.444 8.49267C122.365 9.52481 121.741 10.9425 121.708 12.4343C121.676 13.926 122.238 15.3696 123.272 16.4474C123.783 16.9816 124.396 17.4098 125.073 17.7077C125.751 18.0056 126.48 18.1671 127.221 18.1833C127.961 18.1995 128.697 18.0699 129.386 17.802C130.076 17.534 130.707 17.1329 131.241 16.6216C134.865 13.1565 133.676 12.2407 138.096 11.4476C141.872 10.7701 143.659 11.4873 146.905 12.8436C147.72 13.1838 148.884 13.5874 149.873 13.9832C149.438 14.7185 148.938 15.2895 148.569 16.1494C147.981 17.5211 147.962 19.07 148.517 20.4553C149.073 21.8405 150.157 22.9486 151.53 23.5361C152.21 23.8273 152.942 23.9819 153.682 23.991C154.422 24 155.157 23.8635 155.844 23.589C156.531 23.3144 157.157 22.9073 157.687 22.391C158.217 21.8746 158.639 21.2591 158.93 20.5796C159.778 18.6021 160.632 17.8209 161.47 17.1835C161.888 16.8649 162.3 16.6106 162.857 16.2689C163.414 15.9274 164.261 16.0224 165.729 13.6341C166.255 12.7778 166.542 11.7964 166.56 10.792C166.578 9.78761 166.326 8.79672 165.831 7.92224C165.336 7.04777 164.615 6.32149 163.744 5.81901C162.873 5.31654 161.883 5.05631 160.877 5.06493C157.151 5.0998 154.88 3.97516 151.247 2.45968C148.522 1.32308 144.953 0.0719366 140.648 0.000696461L140.648 0.00343306ZM66.5752 7.1192C64.4082 7.14411 62.2726 7.37882 60.2159 7.79879C53.1844 9.23605 47.8677 13.0497 43.0143 16.2819C38.161 19.5144 33.7991 22.2282 28.7759 23.1897C27.3613 23.4673 26.107 24.2755 25.271 25.4483C24.4351 26.6212 24.0812 28.0696 24.282 29.4952C24.4828 30.9207 25.223 32.2152 26.3505 33.1123C27.478 34.0095 28.9068 34.4408 30.3432 34.318C35.8743 33.8185 37.1075 34.6007 39.0445 35.7468C40.9812 36.8931 44.5005 39.6017 49.8493 39.6844C50.5894 39.6962 51.3248 39.5624 52.0131 39.2904C52.7014 39.0183 53.3293 38.6135 53.8609 38.099C54.3924 37.5846 54.817 36.9707 55.1109 36.2923C55.4047 35.6138 55.562 34.884 55.5734 34.145C55.5962 32.653 55.0244 31.2131 53.9842 30.1419C52.9439 29.0708 51.5203 28.4561 50.0262 28.4331C48.5677 28.4082 47.7919 27.9674 46.6587 27.2338C47.4958 26.692 48.4815 26.1684 49.271 25.6423C54.2177 22.3481 58.3336 19.6701 62.4747 18.8236C66.0252 18.0978 70.2005 18.2794 73.5926 19.5084C74.9972 20.017 76.5466 19.9478 77.9001 19.3159C79.2537 18.684 80.3002 17.5412 80.81 16.1387C81.3195 14.7362 81.2503 13.189 80.6176 11.8374C79.9849 10.4858 78.8408 9.44037 77.4364 8.93114C74.5949 7.90164 71.6603 7.33643 68.7509 7.17029C68.0235 7.13043 67.2976 7.11422 66.5752 7.1192ZM139.746 14.3083C138.256 14.411 136.868 15.1002 135.886 16.2248C129.605 23.4305 122.11 35.3011 117.444 51.4348C115.093 46.6587 112.139 42.3724 108.54 38.6637C97.9733 27.7776 82.393 22.269 63.2473 22.269C62.5071 22.2691 61.7742 22.4148 61.0905 22.6978C60.4067 22.9807 59.7854 23.3955 59.2622 23.9183C58.739 24.4411 58.3241 25.0616 58.0411 25.7445C57.7582 26.4274 57.6126 27.1594 57.613 27.8985C57.6133 29.3905 58.2072 30.8214 59.2637 31.8763C60.3203 32.9312 61.7532 33.5239 63.2473 33.5241C80.2781 33.5241 92.378 38.1833 100.447 46.4965C107.602 53.8678 111.909 64.5247 112.794 78.7433C111.33 78.7853 109.94 79.3949 108.918 80.4428C107.897 81.4906 107.324 82.8943 107.321 84.3567C107.321 85.8487 107.915 87.2795 108.972 88.3345C110.028 89.3895 111.461 89.9824 112.955 89.9826H118.606C118.614 89.9823 118.622 89.9822 118.63 89.9819C118.63 89.9817 118.63 89.9822 118.63 89.9819C118.887 89.9787 119.144 89.9584 119.397 89.9202C119.472 89.9084 119.546 89.8951 119.619 89.8804C119.753 89.8569 119.886 89.8289 120.017 89.7959C120.055 89.7854 120.092 89.7745 120.129 89.7633C120.16 89.7544 120.191 89.7453 120.222 89.736C120.282 89.7195 120.342 89.7021 120.401 89.6837C120.649 89.6012 120.891 89.5016 121.124 89.3857C121.172 89.3606 121.219 89.3349 121.266 89.3084C121.297 89.2921 121.327 89.2757 121.356 89.2589C121.395 89.2377 121.433 89.2161 121.471 89.1941C121.586 89.1259 121.698 89.0535 121.808 88.9773C121.871 88.9337 121.934 88.8887 121.995 88.8426C122.194 88.6945 122.383 88.5336 122.561 88.3607C122.571 88.3524 122.581 88.3441 122.59 88.3357C122.59 88.336 122.591 88.3355 122.59 88.3357C122.775 88.1482 122.947 87.9475 123.104 87.7361C123.146 87.678 123.188 87.6189 123.228 87.5591C123.307 87.447 123.382 87.3319 123.453 87.2143C123.471 87.1813 123.49 87.1483 123.508 87.1149C123.522 87.0893 123.536 87.0635 123.55 87.0377C123.584 86.9793 123.616 86.9202 123.647 86.8607C123.764 86.6271 123.864 86.3857 123.947 86.1382C123.962 86.0894 123.976 86.0406 123.989 85.9914C123.999 85.9566 124.01 85.9217 124.019 85.8868C124.031 85.8479 124.043 85.8089 124.054 85.7697C124.088 85.6371 124.117 85.5033 124.141 85.3686C124.155 85.2934 124.168 85.2179 124.179 85.1421C124.214 84.8975 124.233 84.6506 124.236 84.4035C124.236 84.3919 124.236 84.3805 124.236 84.3689C124.236 75.6031 125.92 69.4975 127.883 66.2097C129.846 62.9219 131.282 62.4116 133.154 62.5673C135.027 62.7217 138.297 64.3421 141.77 68.8514C145.242 73.3607 148.758 80.5105 151.323 90.2769C151.511 90.9919 151.837 91.6632 152.285 92.2521C152.732 92.841 153.291 93.3362 153.93 93.7092C154.569 94.0822 155.276 94.3258 156.009 94.4262C156.743 94.5265 157.489 94.4815 158.205 94.2939C158.921 94.1064 159.592 93.7799 160.182 93.3331C160.771 92.8862 161.267 92.3277 161.64 91.6896C162.013 91.0515 162.257 90.3462 162.358 89.614C162.458 88.8818 162.413 88.1371 162.225 87.4223C159.368 76.5442 155.405 68.0933 150.704 61.9896C146.003 55.8856 140.404 51.8775 134.089 51.3527C132.405 51.2132 130.74 51.3852 129.135 51.8134C133.367 38.6937 139.545 29.1762 144.382 23.627C145.363 22.5015 145.856 21.0332 145.753 19.5446C145.65 18.0559 144.959 16.6689 143.832 15.689C143.274 15.2038 142.625 14.8332 141.924 14.5983C141.222 14.3634 140.481 14.269 139.743 14.3201L139.746 14.3083ZM144.291 37.3662C143.192 37.5504 142.172 38.0558 141.361 38.8185C140.55 39.5811 139.983 40.5669 139.733 41.6511C139.567 42.3714 139.544 43.1173 139.667 43.8462C139.79 44.5751 140.055 45.2725 140.448 45.899C140.841 46.5254 141.353 47.0685 141.956 47.4971C142.56 47.9257 143.241 48.2314 143.963 48.3969C154.084 50.7211 174.126 57.498 182.723 70.3639C185.344 74.3212 186.619 78.3308 186.743 82.8087C186.743 82.817 186.743 82.8253 186.743 82.8336V175.004C186.743 181.733 184.045 188.471 178.39 194.789L174.84 198.257C174.83 198.268 174.821 198.279 174.811 198.29C174.802 198.298 174.794 198.306 174.786 198.315C165.411 207.671 147.634 214.813 127.233 216.36C124.369 216.577 121.483 216.687 118.592 216.687C115.7 216.687 112.811 216.577 109.946 216.36C89.5458 214.813 71.7718 207.671 62.3974 198.315C62.3974 198.314 62.3974 198.315 62.3974 198.315C62.3842 198.3 62.3709 198.285 62.3575 198.271L58.8021 194.797C56.8823 192.651 55.3105 190.456 54.0627 188.23C54.0071 188.123 53.9482 188.018 53.8858 187.915C51.5791 183.688 50.4537 179.351 50.4537 175.018V107.675C54.1571 111.433 58.6058 114.804 63.6048 117.692C78.0308 126.026 97.3411 130.93 118.594 130.93C130.679 130.93 142.137 129.326 152.423 126.427C153.861 126.022 155.079 125.064 155.809 123.762C156.54 122.461 156.722 120.923 156.317 119.486C156.116 118.775 155.777 118.11 155.319 117.53C154.861 116.949 154.292 116.465 153.646 116.104C153 115.743 152.289 115.512 151.554 115.425C150.819 115.339 150.074 115.398 149.362 115.599C140.138 118.198 129.677 119.676 118.594 119.676C99.103 119.676 81.5238 115.04 69.2488 107.949C56.9735 100.858 50.4537 91.8262 50.4537 82.6853C50.4537 76.6652 53.1689 70.8618 58.6474 65.3805C64.1256 59.8995 72.3438 54.9761 82.4199 51.4679C83.8311 50.9769 84.9893 49.9463 85.6395 48.6027C86.2897 47.2592 86.3787 45.7127 85.8871 44.3035C85.6433 43.6057 85.2644 42.9625 84.7716 42.411C84.2789 41.8595 83.6822 41.4104 83.0156 41.0892C82.349 40.768 81.6257 40.5811 80.8867 40.5392C80.1478 40.4972 79.4077 40.6008 78.7089 40.8445C67.3643 44.7946 57.71 50.3852 50.6702 57.4283C43.6305 64.4716 39.1833 73.2036 39.1833 82.6853V160.208H24.5548H20.4291C15.2567 160.208 11.2713 156.225 11.2713 151.06V69.4571C11.2713 64.2925 15.2567 60.3096 20.4291 60.3096H24.5548H39.3496C40.0899 60.3099 40.8233 60.1645 41.5073 59.8818C42.1914 59.599 42.813 59.1846 43.3365 58.6619C43.86 58.1391 44.2752 57.5184 44.5585 56.8353C44.8417 56.1523 44.9872 55.4203 44.9869 54.681C44.9868 53.942 44.841 53.2103 44.5576 52.5276C44.2742 51.8449 43.8588 51.2247 43.3353 50.7023C42.8118 50.1799 42.1906 49.7656 41.5067 49.483C40.8228 49.2004 40.0897 49.0551 39.3496 49.0555H24.5548H20.4291C9.20821 49.0555 0 58.2528 0 69.4571V151.06C0 162.264 9.20846 171.462 20.4291 171.462H24.5548H39.1833V175.041C39.1833 180.986 40.6895 186.82 43.4729 192.278V236.777C43.4729 244.831 46.7384 252.233 52.4047 258.638C52.7023 259.275 53.0217 259.901 53.3575 260.52L54.1316 263.4C54.4459 264.57 55.1296 265.607 56.0813 266.358L60.5189 269.857C67.3876 276.547 76.965 281.579 88.0759 284.782L102.635 291.345C103.05 291.532 103.485 291.668 103.933 291.751C103.933 291.751 110.628 293 118.594 293C126.532 293 133.289 291.817 133.289 291.817C133.765 291.735 134.228 291.592 134.667 291.392L149.214 284.753C160.287 281.547 169.832 276.523 176.68 269.848L181.108 266.358C182.058 265.607 182.741 264.569 183.055 263.4L183.831 260.519C184.167 259.9 184.487 259.274 184.785 258.637C190.429 252.256 193.689 244.887 193.714 236.869C193.714 236.861 193.714 236.853 193.714 236.844V192.27C196.5 186.804 198 180.963 198 175.01V82.6773C198 82.6425 198 82.6076 198 82.5727C198 82.5536 198 82.5347 198 82.5156C197.818 75.9772 195.784 69.7134 192.097 64.1539C192.088 64.1456 192.08 64.1376 192.072 64.1293C180.288 46.4841 157.71 40.0176 146.46 37.434L146.485 37.459C145.763 37.2935 145.017 37.2715 144.287 37.3942L144.291 37.3662ZM165.34 66.4606C164.153 66.5355 163.019 66.9843 162.102 67.7422C161.186 68.5001 160.533 69.5282 160.237 70.6795C160.053 71.3954 160.012 72.1404 160.117 72.8721C160.221 73.6038 160.47 74.3077 160.847 74.9437C161.224 75.5797 161.722 76.1352 162.314 76.5787C162.906 77.0222 163.58 77.3449 164.297 77.5283C166.865 78.1851 170.131 80.8929 170.847 82.383C171.475 83.69 171.544 84.8299 171.113 86.7193C170.682 88.6087 169.608 91.0416 168.221 93.7338C166.734 96.621 164.859 99.8129 163.41 103.367C159.838 101.299 156.092 99.84 152.787 98.4383C146.813 95.9053 142.81 93.5988 141.52 90.6035C141.255 89.988 141.016 88.3875 141.24 86.9382C141.465 85.489 142.134 84.2947 142.432 84.0043C142.961 83.4875 143.383 82.8717 143.673 82.1921C143.964 81.5124 144.118 80.7822 144.126 80.0432C144.134 79.3042 143.996 78.5708 143.721 77.885C143.445 77.1991 143.036 76.5745 142.519 76.0463C142.001 75.5181 141.384 75.0967 140.703 74.8066C140.023 74.5164 139.292 74.3632 138.552 74.3553C137.811 74.3475 137.077 74.4851 136.39 74.7607C135.703 75.0363 135.078 75.4443 134.549 75.9614C131.829 78.6205 130.606 81.9417 130.1 85.2227C129.594 88.5037 129.792 91.8479 131.168 95.045C134.566 102.938 142.116 106.141 148.383 108.799C154.649 111.456 160.081 113.858 162.432 116.896C163.154 117.829 164.153 118.512 165.286 118.848C166.418 119.183 167.628 119.155 168.744 118.767C169.859 118.378 170.825 117.65 171.503 116.684C172.181 115.718 172.539 114.563 172.524 113.383C172.482 109.978 175.211 104.769 178.244 98.8795C179.761 95.9348 181.286 92.7965 182.101 89.2203C182.917 85.6441 182.883 81.4242 181.006 77.5167C178.294 71.8686 173.07 68.1524 167.097 66.6245C166.524 66.478 165.931 66.423 165.34 66.4606ZM84.2272 74.1559C82.7333 74.1563 81.3009 74.7488 80.2445 75.8036C79.1882 76.8584 78.5943 78.2891 78.5938 79.7808C78.5935 80.5198 78.739 81.2517 79.0219 81.9345C79.3049 82.6174 79.7199 83.238 80.243 83.7607C80.7661 84.2835 81.3873 84.6979 82.071 84.981C82.7546 85.264 83.4871 85.4098 84.2272 85.41H86.62C87.3601 85.4099 88.0931 85.2642 88.7768 84.9813C89.4606 84.6983 90.0819 84.2835 90.6051 83.7607C91.1283 83.238 91.5432 82.6174 91.8262 81.9345C92.1091 81.2516 92.2546 80.5199 92.2543 79.7808C92.2538 78.2889 91.6601 76.8584 90.6036 75.8036C89.547 74.7488 88.114 74.1561 86.62 74.1559H84.2272ZM21.5378 83.7151C20.7977 83.7153 20.065 83.8612 19.3812 84.1442C18.6975 84.4271 18.0762 84.8416 17.553 85.3644C17.0298 85.8871 16.6149 86.5077 16.3319 87.1906C16.049 87.8735 15.9038 88.6053 15.9041 89.3443C15.9043 90.8363 16.4977 92.2671 17.5542 93.3221C18.6107 94.3771 20.0436 94.9699 21.5378 94.9702H29.0021C30.4961 94.9697 31.9288 94.3768 32.9851 93.3218C34.0414 92.2669 34.635 90.8361 34.6352 89.3443C34.6355 88.6053 34.4903 87.8738 34.2074 87.1909C33.9245 86.5081 33.5094 85.8874 32.9863 85.3647C32.4632 84.842 31.8423 84.4272 31.1587 84.1442C30.475 83.8611 29.7422 83.7153 29.0021 83.7151H21.5378ZM97.409 90.9084C96.1685 90.8823 94.9543 91.2658 93.9544 91.9994L92.8627 92.797C91.6581 93.68 90.8542 95.0046 90.6276 96.4795C90.4011 97.9545 90.7703 99.459 91.6544 100.662C92.092 101.258 92.6432 101.762 93.2759 102.146C93.9087 102.529 94.6108 102.784 95.3423 102.896C96.0738 103.009 96.8204 102.976 97.5393 102.8C98.2582 102.624 98.9353 102.309 99.532 101.872L100.622 101.071C101.827 100.188 102.631 98.863 102.858 97.3881C103.084 95.9132 102.715 94.4089 101.831 93.206C100.947 92.003 99.6211 91.1995 98.1444 90.9726C97.901 90.935 97.6552 90.914 97.409 90.9084ZM21.5378 106.224C20.0436 106.225 18.6107 106.817 17.5542 107.872C16.4977 108.927 15.9043 110.358 15.9041 111.85C15.9046 113.342 16.4983 114.773 17.5548 115.827C18.6113 116.882 20.0438 117.475 21.5378 117.475H29.0021C30.496 117.475 31.9285 116.882 32.9848 115.827C34.0411 114.772 34.6347 113.342 34.6352 111.85C34.635 110.359 34.0414 108.928 32.9851 107.873C31.9287 106.818 30.4962 106.225 29.0021 106.224H21.5378ZM96.4169 168.93C92.1795 169.019 88.2212 169.948 84.8734 172.027C83.6043 172.815 82.7007 174.074 82.3612 175.527C82.0217 176.98 82.2741 178.509 83.0631 179.776C83.8521 181.043 85.1129 181.945 86.5682 182.284C88.0235 182.623 89.5543 182.371 90.8234 181.584C92.0674 180.811 93.9017 180.237 96.6599 180.178C97.3997 180.162 98.1292 180.001 98.8067 179.704C99.4841 179.406 100.096 178.979 100.608 178.445C101.12 177.911 101.522 177.283 101.79 176.594C102.059 175.906 102.189 175.171 102.173 174.432C102.141 172.94 101.516 171.522 100.436 170.49C99.3569 169.458 97.911 168.897 96.4169 168.93ZM138.748 169.366C137.254 169.334 135.809 169.896 134.731 170.927C133.652 171.959 133.027 173.376 132.995 174.867C132.978 175.606 133.108 176.341 133.376 177.03C133.644 177.718 134.046 178.348 134.558 178.882C135.069 179.415 135.681 179.843 136.359 180.141C137.036 180.439 137.766 180.6 138.506 180.616C141.264 180.676 143.098 181.246 144.342 182.019C144.971 182.409 145.67 182.672 146.4 182.793C147.131 182.913 147.878 182.889 148.598 182.721C149.319 182.553 150 182.245 150.602 181.814C151.203 181.384 151.714 180.839 152.105 180.211C152.894 178.944 153.146 177.415 152.807 175.962C152.467 174.509 151.564 173.25 150.295 172.462C146.947 170.383 142.985 169.456 138.748 169.366ZM116.96 185.612C107.364 185.612 102.403 194.167 102.403 194.167C101.989 194.78 101.701 195.468 101.554 196.193C101.407 196.917 101.404 197.664 101.546 198.389C101.688 199.115 101.971 199.805 102.38 200.421C102.79 201.037 103.316 201.567 103.931 201.979C105.17 202.812 106.69 203.12 108.157 202.834C109.623 202.548 110.916 201.692 111.751 200.454C111.751 200.454 115.108 196.751 117.248 196.875C120.412 197.059 122.456 199.882 122.456 199.882C122.863 200.499 123.389 201.03 124.001 201.445C124.614 201.859 125.303 202.149 126.027 202.298C126.752 202.446 127.499 202.451 128.226 202.311C128.953 202.171 129.645 201.89 130.263 201.483C131.511 200.662 132.38 199.379 132.681 197.917C132.982 196.456 132.689 194.934 131.866 193.688C131.866 193.688 127.092 186.174 117.903 185.641C117.584 185.616 117.27 185.612 116.96 185.612ZM54.7515 206.545C56.4049 208.167 58.1972 209.703 60.1145 211.151C59.4405 212.587 59.1362 214.13 59.0871 215.532C58.9873 218.394 59.7505 221.182 61.2168 223.817C62.6826 226.452 64.6433 228.576 67.18 229.97C69.7167 231.365 73.4634 232.04 76.6833 230.11C79.8561 228.209 81.0186 224.833 81.148 221.997C89.6778 224.919 99.1504 226.799 109.105 227.555C112.255 227.794 115.43 227.913 118.606 227.913C121.781 227.913 124.952 227.794 128.103 227.555C150.352 225.867 170.202 218.569 182.456 206.544V236.752C182.456 247.59 171.748 259.378 151.566 266.093C131.383 272.808 105.825 272.808 85.6419 266.093C65.4593 259.378 54.7515 247.59 54.7515 236.752V206.545Z" fill="#DBE8BE"/>
</svg>
