<svg width="51" height="51" viewBox="0 0 51 51" fill="none" xmlns="http://www.w3.org/2000/svg">
<mask id="mask0_31_66" style="mask-type:alpha" maskUnits="userSpaceOnUse" x="0" y="0" width="51" height="51">
<rect width="51" height="51" fill="#D9D9D9"/>
</mask>
<g mask="url(#mask0_31_66)">
<path d="M25.5 46.75C22.5604 46.75 20.0547 45.7141 17.9828 43.6422C15.9109 41.5703 14.875 39.0646 14.875 36.125C14.875 34.425 15.2469 32.8401 15.9906 31.3703C16.7344 29.9005 17.7792 28.6521 19.125 27.625V10.625C19.125 8.85417 19.7448 7.34896 20.9844 6.10938C22.224 4.86979 23.7292 4.25 25.5 4.25C27.2708 4.25 28.776 4.86979 30.0156 6.10938C31.2552 7.34896 31.875 8.85417 31.875 10.625V27.625C33.2208 28.6521 34.2656 29.9005 35.0094 31.3703C35.7531 32.8401 36.125 34.425 36.125 36.125C36.125 39.0646 35.0891 41.5703 33.0172 43.6422C30.9453 45.7141 28.4396 46.75 25.5 46.75ZM23.375 23.375H27.625V21.25H25.5V19.125H27.625V14.875H25.5V12.75H27.625V10.625C27.625 10.0229 27.4214 9.51823 27.0141 9.11094C26.6068 8.70365 26.1021 8.5 25.5 8.5C24.8979 8.5 24.3932 8.70365 23.9859 9.11094C23.5786 9.51823 23.375 10.0229 23.375 10.625V23.375Z" fill="#DBE8BE"/>
</g>
</svg>
